<?xml version="1.0" encoding="UTF-8"?>
<!DOCTYPE svg PUBLIC "-//W3C//DTD SVG 1.1//EN" "http://www.w3.org/Graphics/SVG/1.1/DTD/svg11.dtd">
<!-- Creator: CorelDRAW X6 -->
<svg xmlns="http://www.w3.org/2000/svg" xml:space="preserve" width="26.6667in" height="10.1111in" version="1.1" style="shape-rendering:geometricPrecision; text-rendering:geometricPrecision; image-rendering:optimizeQuality; fill-rule:evenodd; clip-rule:evenodd"
viewBox="0 0 26667 10111"
 xmlns:xlink="http://www.w3.org/1999/xlink">
 <defs>
  <style type="text/css">
   <![CDATA[
    .fil6 {fill:#212121;fill-rule:nonzero}
    .fil0 {fill:#216EFF;fill-rule:nonzero}
    .fil5 {fill:#4DF840;fill-rule:nonzero}
    .fil3 {fill:#4DF840;fill-rule:nonzero;fill-opacity:0.741176}
    .fil2 {fill:#37D75A;fill-rule:nonzero;fill-opacity:0.749020}
    .fil4 {fill:#70F8A9;fill-rule:nonzero;fill-opacity:0.780392}
    .fil1 {fill:#CDE849;fill-rule:nonzero;fill-opacity:0.788235}
   ]]>
  </style>
 </defs>
 <g id="__x0023_Layer_x0020_1">
  <metadata id="CorelCorpID_0Corel-Layer"/>
  <g id="_401216104">
   <path class="fil0" d="M8360 5056c0,-7 0,-13 -35,-21 34,282 -59,522 -60,737 -208,624 -696,1175 -1271,1441 -345,157 -707,279 -1064,279 -19,0 -85,-53 -116,14 -310,-1107 -1146,-1969 -2338,-2200 45,-97 24,-220 24,-250 0,-1369 1061,-2435 2430,-2435 -14,0 -26,0 8,-5 1340,39 2422,1110 2422,2440z"/>
   <path class="fil1" d="M5712 5341c-271,311 -524,472 -825,644 -325,136 -693,191 -1086,258 -224,-360 -301,-778 -301,-1187 0,-1369 1061,-2435 2430,-2435 -14,0 -26,0 8,-5 515,884 431,1950 -226,2726z"/>
   <path class="fil2" d="M8265 5771c-306,980 -1228,1720 -2335,1720 -527,0 -1053,-191 -1419,-483 108,-191 213,-360 415,-533 70,-127 109,-197 213,-282 523,-496 1290,-781 2002,-758 319,55 740,123 1125,336z"/>
   <path class="fil3" d="M8325 5034c34,282 -59,522 -60,737 -208,624 -696,1175 -1271,1441 -357,-498 -380,-1191 10,-1635 57,-60 126,-107 137,-142 320,-295 782,-412 1185,-401z"/>
   <path class="fil4" d="M5814 7505c-486,-94 -923,-245 -1303,-497 -287,-214 -537,-456 -710,-766 -155,-274 -258,-580 -325,-938 1192,231 2028,1094 2338,2200z"/>
   <g>
    <path class="fil5" d="M13195 6171c-79,93 -229,132 -372,132 -232,0 -390,-157 -450,-390 -11,-318 214,-543 450,-543 143,0 293,54 372,187l-64 23c-79,-107 -207,-114 -307,-114 -232,0 -365,207 -333,354 -43,261 141,457 333,457 100,0 261,-54 286,-100l86 -7z"/>
    <path class="fil5" d="M14197 5842c-8,247 -132,487 -451,487 -318,0 -440,-205 -440,-498 0,-186 143,-436 440,-436 327,0 457,214 451,447zm-795 36l0 0c-21,229 111,422 343,422 274,0 385,-193 385,-422 0,-250 -105,-375 -385,-375 -243,0 -404,150 -343,375z"/>
    <polygon class="fil5" points="14419,5442 15035,6164 15035,5442 15108,5442 15108,6328 15060,6328 14437,5571 14437,6328 14356,6328 14356,5442 "/>
    <path class="fil5" d="M15881 5613c-60,-89 -187,-168 -293,-146 -78,0 -244,54 -244,197 0,100 126,132 258,129 200,18 336,107 336,243 43,229 -177,325 -350,325 -118,0 -291,-107 -371,-264l87 -7c53,79 178,211 284,211 105,0 318,-89 318,-229 -41,-132 -159,-175 -318,-172 -151,-54 -325,-71 -325,-225 -20,-229 214,-232 324,-232 154,0 266,-50 352,154l-59 18z"/>
    <polygon class="fil5" points="16344,5470 16012,5470 16012,5432 16754,5432 16754,5470 16424,5470 16424,6328 16344,6328 "/>
    <path class="fil5" d="M17611 6328l-101 0 -302 -372 -246 0 0 372 -81 0 0 -886c135,0 244,0 399,0 191,0 298,154 290,240 6,154 -122,300 -298,300l339 347zm-649 -443l0 0 297 0c141,0 207,-47 245,-182 6,-89 -104,-236 -225,-236l-318 0 0 418z"/>
    <path class="fil5" d="M18418 5442l0 515c0,483 -675,447 -675,0l0 -515 73 0 0 515c0,390 528,411 528,0l0 -515 74 0z"/>
    <path class="fil5" d="M19325 6171c-93,93 -197,132 -297,132 -311,0 -477,-157 -483,-390 35,-318 144,-543 483,-543 99,0 203,54 297,187l-11 23c-74,-107 -188,-114 -286,-114 -285,0 -425,207 -417,354 12,261 145,457 417,457 98,0 171,-54 243,-100l54 -7z"/>
    <polygon class="fil5" points="19766,5470 19411,5470 19411,5432 20153,5432 20153,5470 19832,5470 19832,6328 19766,6328 "/>
    <polygon class="fil5" points="20265,6328 20265,5442 20355,5442 20355,6328 "/>
    <path class="fil5" d="M21258 6171c-93,93 -197,132 -297,132 -318,0 -477,-157 -468,-390 -30,-318 129,-543 468,-543 99,0 203,54 297,187l-60 23c-25,-107 -179,-114 -237,-114 -285,0 -425,207 -417,354 12,261 145,457 417,457 58,0 171,-54 243,-100l54 -7z"/>
    <path class="fil5" d="M22305 5842c-8,247 -181,487 -437,487 -305,0 -484,-205 -484,-498 0,-186 173,-436 484,-436 291,0 443,214 437,447zm-848 36l0 0c6,229 160,422 411,422 210,0 370,-193 370,-422 0,-250 -154,-375 -370,-375 -265,0 -417,150 -411,375z"/>
    <polygon class="fil5" points="22478,5442 23094,6164 23094,5442 23167,5442 23167,6328 23120,6328 22545,5571 22545,6328 22464,6328 22464,5442 "/>
   </g>
   <g>
    <path class="fil6" d="M11223 4984l-333 0 -484 -526 -316 0 0 526 -244 0 0 -1532c250,0 459,-66 730,-66 392,-9 570,281 570,520 0,231 -123,479 -414,549l491 505 0 24zm-1132 -1296l0 0 0 512 486 0c179,0 273,-135 273,-215 0,-149 -111,-297 -273,-297l-486 0z"/>
    <path class="fil6" d="M12791 3377l0 981c0,456 -316,707 -715,707 -335,0 -666,-289 -666,-707l0 -981 310 0 0 981c0,218 158,371 375,371 218,0 418,-123 418,-371l0 -981 278 0z"/>
    <path class="fil6" d="M14077 3822c-66,-83 -255,-184 -376,-184 -213,0 -312,73 -312,234 0,127 107,102 332,142 296,47 629,123 629,496 0,368 -314,521 -697,521 -300,0 -533,-127 -694,-408l316 -57c34,168 215,199 441,199 194,0 351,-57 351,-255 0,-81 -182,-152 -367,-191 -331,-57 -656,-132 -656,-491 0,-347 315,-467 612,-465 263,0 519,41 656,293l-235 167z"/>
    <path class="fil6" d="M15591 3822c-66,-83 -228,-184 -393,-184 -203,0 -330,73 -330,234 0,127 136,102 355,142 308,47 641,123 641,496 0,368 -314,521 -659,521 -365,0 -601,-127 -699,-408l236 -57c101,168 267,199 445,199 199,0 345,-57 345,-255 0,-81 -130,-152 -335,-191 -319,-57 -643,-132 -643,-491 0,-347 330,-467 631,-465 247,0 495,41 640,293l-235 167z"/>
    <polygon class="fil6" points="16075,4984 16075,3386 16407,3386 16407,4984 "/>
    <path class="fil6" d="M17801 4715l-809 0 -168 269 -319 0 713 -1598 308 0 716 1598 -308 0 -132 -269zm-428 -928l0 0 -293 626 587 0 -293 -626z"/>
    <polygon class="fil6" points="19463,3452 19736,3452 19736,4984 19532,4984 19532,4975 18740,3925 18740,4984 18416,4984 18416,3386 18681,3386 19463,4408 "/>
   </g>
  </g>
 </g>
</svg>
