<?xml version="1.0" encoding="UTF-8" standalone="no"?>
<svg
   xmlns:dc="http://purl.org/dc/elements/1.1/"
   xmlns:cc="http://creativecommons.org/ns#"
   xmlns:rdf="http://www.w3.org/1999/02/22-rdf-syntax-ns#"
   xmlns:svg="http://www.w3.org/2000/svg"
   xmlns="http://www.w3.org/2000/svg"
   viewBox="0 0 2560 970.66669"
   height="970.66669"
   width="2560"
   xml:space="preserve"
   id="svg2"
   version="1.1"><metadata
     id="metadata8"><rdf:RDF><cc:Work
         rdf:about=""><dc:format>image/svg+xml</dc:format><dc:type
           rdf:resource="http://purl.org/dc/dcmitype/StillImage" /></cc:Work></rdf:RDF></metadata><defs
     id="defs6"><clipPath
       id="clipPath18"
       clipPathUnits="userSpaceOnUse"><path
         id="path16"
         d="M 0,728 H 1920 V 0 H 0 Z" /></clipPath><clipPath
       id="clipPath30"
       clipPathUnits="userSpaceOnUse"><path
         id="path28"
         d="M 252,538.747 H 450.14 V 280.541 H 252 Z" /></clipPath><clipPath
       id="clipPath46"
       clipPathUnits="userSpaceOnUse"><path
         id="path44"
         d="M 325.899,334.358 H 594.197 V 189.253 H 325.899 Z" /></clipPath><clipPath
       id="clipPath62"
       clipPathUnits="userSpaceOnUse"><path
         id="path60"
         d="m 484.458,364.382 h 117.02 V 206.621 h -117.02 z" /></clipPath><clipPath
       id="clipPath78"
       clipPathUnits="userSpaceOnUse"><path
         id="path76"
         d="M 252.843,346.786 H 416.952 V 189.529 H 252.843 Z" /></clipPath></defs><g
     transform="matrix(1.3333333,0,0,-1.3333333,0,970.66667)"
     id="g10"><g
       id="g12"><g
         clip-path="url(#clipPath18)"
         id="g14"><g
           transform="translate(601.4932,364)"
           id="g20"><path
             id="path22"
             style="fill:#d9f2ff;fill-opacity:1;fill-rule:nonzero;stroke:none"
             d="m 0,0 c 0,-0.353 0,-0.705 -0.015,-1.058 -0.092,-17.014 -2.621,-33.477 -7.281,-49.005 -14.103,-47.274 -47.672,-86.147 -91.405,-107.316 -22.993,-11.129 -48.791,-17.368 -76.046,-17.368 -3.28,0 -6.545,0.093 -9.795,0.276 -18.271,80 -82.897,142.326 -164.108,157.257 -0.567,5.656 -0.843,11.404 -0.843,17.214 0,96.509 78.237,174.747 174.746,174.747 0.813,0 1.625,0 2.422,-0.031 C -76.935,173.428 0,95.697 0,0" /></g><g
           id="g24"><g
             id="g26" /><g
             id="g38"><g
               style="opacity:0.78999299"
               id="g36"
               clip-path="url(#clipPath30)"><g
                 id="g34"
                 transform="translate(409.2261,343.1074)"><path
                   id="path32"
                   style="fill:#aaca4a;fill-opacity:1;fill-rule:nonzero;stroke:none"
                   d="m 0,0 c -16.156,-19.269 -35.578,-34.168 -56.762,-44.592 -24.786,-12.185 -52.01,-18.256 -79.28,-17.965 -13.504,24.802 -21.184,53.221 -21.184,83.45 0,96.509 78.237,174.746 174.747,174.746 0.812,0 1.625,0 2.421,-0.031 C 52.991,134.34 47.442,56.563 0,0" /></g></g></g></g><g
           id="g40"><g
             id="g42" /><g
             id="g54"><g
               style="opacity:0.75"
               id="g52"
               clip-path="url(#clipPath46)"><g
                 id="g50"
                 transform="translate(594.1968,313.9365)"><path
                   id="path48"
                   style="fill:#87cfe8;fill-opacity:1;fill-rule:nonzero;stroke:none"
                   d="m 0,0 c -21.506,-72.121 -88.339,-124.684 -167.45,-124.684 -37.571,0 -72.367,11.85 -100.847,32.038 7.066,14.592 16.003,28.573 26.901,41.556 5.365,6.392 11.037,12.355 16.984,17.903 39.671,37.019 91.497,55.214 143.124,53.498 C -53.481,19.36 -25.737,12.646 0,0" /></g></g></g></g><g
           id="g56"><g
             id="g58" /><g
             id="g70"><g
               style="opacity:0.74000501"
               id="g68"
               clip-path="url(#clipPath62)"><g
                 id="g66"
                 transform="translate(601.478,362.9424)"><path
                   id="path64"
                   style="fill:#3562ac;fill-opacity:1;fill-rule:nonzero;stroke:none"
                   d="m 0,0 c -0.092,-17.015 -2.621,-33.478 -7.281,-49.006 -14.103,-47.273 -47.672,-86.146 -91.405,-107.315 -25.629,36.206 -24.786,86.437 5.043,122.015 1.625,1.948 3.327,3.818 5.074,5.611 C -64.994,-4.491 -31.577,5.411 0,0" /></g></g></g></g><g
           id="g72"><g
             id="g74" /><g
             id="g86"><g
               style="opacity:0.77999902"
               id="g84"
               clip-path="url(#clipPath78)"><g
                 id="g82"
                 transform="translate(416.9517,189.5293)"><path
                   id="path80"
                   style="fill:#9662a5;fill-opacity:1;fill-rule:nonzero;stroke:none"
                   d="m 0,0 c -33.815,1.854 -65.055,13.336 -91.052,31.761 -21.782,15.421 -39.885,35.7 -52.716,59.26 -10.914,20.035 -18.011,42.43 -20.34,66.236 C -82.897,142.326 -18.272,80 0,0" /></g></g></g></g><g
           transform="translate(950.1763,282.0635)"
           id="g88"><path
             id="path90"
             style="fill:#3562ac;fill-opacity:1;fill-rule:nonzero;stroke:none"
             d="m 0,0 c -6.438,-6.437 -14.991,-9.657 -23.453,-9.657 -21.704,0 -33.016,15.175 -33.108,32.556 -0.184,17.199 11.036,33.292 33.108,33.292 8.462,0 17.015,-3.217 23.453,-9.655 l -3.403,-2.943 c -5.519,5.517 -12.784,8.184 -20.05,8.184 -18.761,0 -28.418,-13.243 -28.325,-28.693 0.183,-15.083 9.748,-28.143 28.325,-28.143 7.266,0 14.624,2.759 20.141,8.186 z" /></g><g
           transform="translate(963.8789,305.3311)"
           id="g92"><path
             id="path94"
             style="fill:#3562ac;fill-opacity:1;fill-rule:nonzero;stroke:none"
             d="m 0,0 c 0.092,-14.531 9.289,-28.694 27.59,-28.694 18.394,0 27.683,14.163 27.683,28.694 0,14.898 -9.197,28.602 -27.683,28.602 C 9.104,28.602 -0.091,15.175 0,0 M 60.056,-0.092 C 59.963,-17.015 49.203,-33.293 27.59,-33.293 c -21.612,0 -32.464,16.371 -32.464,33.385 0,17.29 10.76,33.108 32.464,33.108 21.706,0 32.557,-15.91 32.466,-33.292" /></g><g
           transform="translate(1037.916,337.5205)"
           id="g96"><path
             id="path98"
             style="fill:#3562ac;fill-opacity:1;fill-rule:nonzero;stroke:none"
             d="M 0,0 43.317,-53.25 V 0 h 4.874 V -64.378 H 46.26 L 2.851,-11.221 v -53.157 h -4.967 l 0,64.378 z" /></g><g
           transform="translate(1143.2197,325.1035)"
           id="g100"><path
             id="path102"
             style="fill:#3562ac;fill-opacity:1;fill-rule:nonzero;stroke:none"
             d="m 0,0 c -4.691,7.542 -12.233,8.646 -19.498,8.737 -7.541,0 -19.497,-2.758 -19.497,-13.059 0,-8.185 8.829,-10.116 19.682,-12.139 12.416,-2.392 25.291,-4.599 25.291,-18.486 -0.092,-14.531 -14.715,-18.027 -25.476,-18.027 -10.024,0 -21.428,4.14 -26.396,13.98 l 4.415,2.207 c 3.956,-7.817 14.072,-11.68 21.981,-11.68 7.909,0 20.509,2.207 20.509,13.612 0.093,9.657 -10.576,11.772 -21.153,13.795 -11.771,2.299 -23.82,4.691 -23.82,16.554 -0.275,13.611 13.889,17.842 24.464,17.842 9.197,0 17.199,-1.472 23.544,-10.944 z" /></g><g
           transform="translate(1177.9844,333.0137)"
           id="g104"><path
             id="path106"
             style="fill:#3562ac;fill-opacity:1;fill-rule:nonzero;stroke:none"
             d="M 0,0 H -23.269 V 4.415 H 28.234 V 0 H 4.967 V -59.871 H 0 Z" /></g><g
           transform="translate(1220.6592,302.2041)"
           id="g108"><path
             id="path110"
             style="fill:#3562ac;fill-opacity:1;fill-rule:nonzero;stroke:none"
             d="m 0,0 h 22.809 c 11.219,0 16.186,6.346 16.278,15.359 0.091,7.54 -5.059,15.359 -15.727,15.359 H 0 Z M 46.353,-29.062 H 39.821 L 17.566,-4.69 H 0 V -29.062 H -4.967 V 35.316 H 23.36 c 13.98,0 21.06,-10.025 21.153,-20.049 C 44.604,4.782 37.707,-4.414 23.637,-4.414 Z" /></g><g
           transform="translate(1326.5166,337.5205)"
           id="g112"><path
             id="path114"
             style="fill:#3562ac;fill-opacity:1;fill-rule:nonzero;stroke:none"
             d="m 0,0 v -40.007 c 0,-33.66 -49.295,-33.752 -49.295,0 V 0 h 4.874 v -40.007 c 0,-27.681 39.546,-27.591 39.546,0 V 0 Z" /></g><g
           transform="translate(1393.1953,282.0635)"
           id="g116"><path
             id="path118"
             style="fill:#3562ac;fill-opacity:1;fill-rule:nonzero;stroke:none"
             d="m 0,0 c -6.438,-6.437 -14.99,-9.657 -23.453,-9.657 -21.704,0 -33.017,15.175 -33.108,32.556 -0.184,17.199 11.036,33.292 33.108,33.292 8.463,0 17.015,-3.217 23.453,-9.655 l -3.402,-2.943 c -5.52,5.517 -12.785,8.184 -20.051,8.184 -18.761,0 -28.418,-13.243 -28.325,-28.693 0.182,-15.083 9.748,-28.143 28.325,-28.143 7.266,0 14.624,2.759 20.141,8.186 z" /></g><g
           transform="translate(1422.165,333.0137)"
           id="g120"><path
             id="path122"
             style="fill:#3562ac;fill-opacity:1;fill-rule:nonzero;stroke:none"
             d="M 0,0 H -23.269 V 4.415 H 28.234 V 0 H 4.967 V -59.871 H 0 Z" /></g><path
           id="path124"
           style="fill:#3562ac;fill-opacity:1;fill-rule:nonzero;stroke:none"
           d="m 1459.873,337.521 h 4.876 v -64.378 h -4.876 z" /><g
           transform="translate(1532.0693,282.0635)"
           id="g126"><path
             id="path128"
             style="fill:#3562ac;fill-opacity:1;fill-rule:nonzero;stroke:none"
             d="m 0,0 c -6.438,-6.437 -14.99,-9.657 -23.453,-9.657 -21.704,0 -33.017,15.175 -33.108,32.556 -0.184,17.199 11.036,33.292 33.108,33.292 8.463,0 17.015,-3.217 23.453,-9.655 l -3.403,-2.943 c -5.519,5.517 -12.784,8.184 -20.05,8.184 -18.761,0 -28.418,-13.243 -28.325,-28.693 0.182,-15.083 9.748,-28.143 28.325,-28.143 7.266,0 14.624,2.759 20.141,8.186 z" /></g><g
           transform="translate(1545.7725,305.3311)"
           id="g130"><path
             id="path132"
             style="fill:#3562ac;fill-opacity:1;fill-rule:nonzero;stroke:none"
             d="m 0,0 c 0.091,-14.531 9.288,-28.694 27.59,-28.694 18.394,0 27.682,14.163 27.682,28.694 0,14.898 -9.197,28.602 -27.682,28.602 C 9.104,28.602 -0.092,15.175 0,0 M 60.056,-0.092 C 59.962,-17.015 49.202,-33.293 27.59,-33.293 c -21.613,0 -32.465,16.371 -32.465,33.385 0,17.29 10.761,33.108 32.465,33.108 21.705,0 32.556,-15.91 32.466,-33.292" /></g><g
           transform="translate(1619.8086,337.5205)"
           id="g134"><path
             id="path136"
             style="fill:#3562ac;fill-opacity:1;fill-rule:nonzero;stroke:none"
             d="M 0,0 43.317,-53.25 V 0 h 4.874 v -64.378 h -1.93 l -43.41,53.157 v -53.157 h -4.967 l 0,64.378 z" /></g><g
           transform="translate(729.0449,461.4458)"
           id="g138"><path
             id="path140"
             style="fill:#1a1a1a;fill-opacity:1;fill-rule:nonzero;stroke:none"
             d="m 0,0 v -36.631 h 32.87 c 13.734,0 19.622,9.158 19.622,18.316 C 52.492,-9.158 46.442,0 32.87,0 Z M 79.801,-94.357 H 54.126 L 20.767,-56.091 H 0 V -94.357 H -21.587 V 20.277 c 18.15,0 36.303,-0.162 54.457,-0.162 26.982,-0.164 41.209,-18.154 41.209,-37.941 0,-15.699 -7.195,-31.56 -28.947,-35.976 l 34.669,-39.083 z" /></g><g
           transform="translate(921.5195,481.3965)"
           id="g142"><path
             id="path144"
             style="fill:#1a1a1a;fill-opacity:1;fill-rule:nonzero;stroke:none"
             d="m 0,0 v -65.576 c 0,-33.85 -20.767,-51.185 -49.551,-51.185 -27.471,0 -50.857,16.68 -50.857,51.185 V 0 h 21.424 v -65.576 c 0,-20.604 11.773,-31.561 29.598,-31.561 17.826,0 27.965,11.938 27.965,31.561 l 0,65.576 z" /></g><g
           transform="translate(1013.2646,453.9233)"
           id="g146"><path
             id="path148"
             style="fill:#1a1a1a;fill-opacity:1;fill-rule:nonzero;stroke:none"
             d="m 0,0 c -3.924,6.542 -14.717,12.755 -27.145,12.755 -16.026,0 -23.713,-6.705 -23.713,-15.209 0,-9.975 11.775,-12.755 25.512,-14.389 23.876,-2.944 46.116,-9.159 46.116,-36.469 0,-25.51 -22.567,-36.467 -48.08,-36.467 -23.383,0 -41.371,7.196 -49.875,28.128 l 17.988,9.321 c 5.071,-12.592 18.315,-18.152 32.215,-18.152 13.575,0 26.33,4.743 26.33,17.17 0,10.794 -11.284,15.209 -26.493,16.844 -23.385,2.78 -44.972,8.995 -44.972,34.669 0,23.548 23.223,33.197 44.317,33.36 17.826,0 36.304,-5.07 44.97,-22.73 z" /></g><g
           transform="translate(1121.3623,453.9233)"
           id="g150"><path
             id="path152"
             style="fill:#1a1a1a;fill-opacity:1;fill-rule:nonzero;stroke:none"
             d="m 0,0 c -3.923,6.542 -14.717,12.755 -27.145,12.755 -16.026,0 -23.712,-6.705 -23.712,-15.209 0,-9.975 11.775,-12.755 25.512,-14.389 23.876,-2.944 46.115,-9.159 46.115,-36.469 0,-25.51 -22.567,-36.467 -48.08,-36.467 -23.382,0 -41.371,7.196 -49.875,28.128 l 17.989,9.321 c 5.07,-12.592 18.314,-18.152 32.215,-18.152 13.574,0 26.329,4.743 26.329,17.17 0,10.794 -11.284,15.209 -26.493,16.844 -23.385,2.78 -44.972,8.995 -44.972,34.669 0,23.548 23.223,33.197 44.318,33.36 17.825,0 36.303,-5.07 44.97,-22.73 z" /></g><path
           id="path154"
           style="fill:#1a1a1a;fill-opacity:1;fill-rule:nonzero;stroke:none"
           d="m 1158.98,481.561 h 21.422 V 367.089 h -21.422 z" /><g
           transform="translate(1252.0293,457.521)"
           id="g156"><path
             id="path158"
             style="fill:#1a1a1a;fill-opacity:1;fill-rule:nonzero;stroke:none"
             d="M 0,0 -21.259,-48.732 H 21.26 Z m 29.926,-68.847 h -59.852 l -9.811,-21.585 H -63.123 L -11.775,24.04 H 11.772 L 63.123,-90.432 H 39.574 Z" /></g><g
           transform="translate(1400.1895,481.7227)"
           id="g160"><path
             id="path162"
             style="fill:#1a1a1a;fill-opacity:1;fill-rule:nonzero;stroke:none"
             d="M 0,0 H 21.584 V -114.634 H 8.177 v -0.164 l -60.179,77.35 v -77.186 H -73.589 V -0.162 h 17.498 L 0,-71.135 Z" /></g></g></g></g></svg>